<?xml version="1.0" standalone="no"?>
<!DOCTYPE svg PUBLIC "-//W3C//DTD SVG 1.1//EN" "http://www.w3.org/Graphics/SVG/1.1/DTD/svg11.dtd" >
<svg xmlns="http://www.w3.org/2000/svg">
<metadata>Generated by IcoMoon</metadata>
<defs>
<font id="icomoon" horiz-adv-x="1024">
<font-face units-per-em="1024" ascent="960" descent="-64" />
<missing-glyph horiz-adv-x="1024" />
<glyph unicode="&#x20;" horiz-adv-x="512" d="" />
<glyph unicode="&#xe900;" d="M201.799 594.464c0-21.024-17.030-38.061-38.053-38.061s-38.053 17.038-38.053 38.061c0 21.008 17.030 38.053 38.053 38.053s38.053-17.038 38.053-38.053z" />
<glyph unicode="&#xe901;" d="M201.799 506.392c0-21.016-17.030-38.053-38.053-38.053s-38.053 17.038-38.053 38.053c0 21.008 17.030 38.053 38.053 38.053s38.053-17.038 38.053-38.053z" />
<glyph unicode="&#xe902;" d="M201.799 418.312c0-21.008-17.030-38.061-38.053-38.061s-38.053 17.054-38.053 38.061c0 21.024 17.030 38.053 38.053 38.053s38.053-17.030 38.053-38.053z" />
<glyph unicode="&#xe903;" d="M106.559 583.294c18.18-10.508 24.434-33.784 13.926-51.988-10.516-18.204-33.784-24.45-52.003-13.934-18.196 10.5-24.434 33.792-13.926 51.98 10.524 18.211 33.8 24.442 52.003 13.942z" />
<glyph unicode="&#xe904;" d="M259.111 495.222c18.188-10.508 24.434-33.792 13.926-51.988-10.516-18.196-33.776-24.442-52.003-13.934-18.196 10.5-24.434 33.784-13.926 51.988 10.516 18.204 33.776 24.45 52.003 13.934z" />
<glyph unicode="&#xe905;" d="M68.6 495.222c18.204 10.492 41.48 4.261 51.972-13.942 10.516-18.211 4.293-41.48-13.911-51.996-18.204-10.5-41.488-4.261-52.003 13.934-10.5 18.204-4.261 41.488 13.942 52.003z" />
<glyph unicode="&#xe906;" d="M221.137 583.286c18.211 10.516 41.496 4.277 52.003-13.934 10.492-18.204 4.261-41.488-13.95-51.988-18.196-10.5-41.48-4.269-51.988 13.942-10.492 18.188-4.254 41.48 13.934 51.98z" />
<glyph unicode="&#xe907;" d="M331.91 446.929c0 0 26.459-25.773 60.833-25.773 18.55 0 35.391 9.626 35.391 29.554 0 43.646-115.121 36.084-115.121 111.002 0 40.558 35.052 70.798 81.794 70.798 48.112 0 72.854-26.12 72.854-26.12l-19.243-36.092c0 0-23.371 21.315-53.957 21.315-20.622 0-36.777-12.028-36.777-29.216 0-43.299 114.79-32.65 114.79-110.663 0-38.833-29.554-71.483-80.423-71.483-54.304 0-84.196 33.335-84.196 33.335l24.056 33.343z" />
<glyph unicode="&#xe908;" d="M613.337 632.517c71.83 0 126.133-54.65 126.133-124.408 0-71.83-54.304-127.85-126.133-127.85-71.822 0-126.125 56.021-126.125 127.85 0.008 69.758 54.304 124.408 126.125 124.408zM613.337 420.817c44.678 0 80.423 37.108 80.423 87.292 0 48.104-35.745 83.858-80.423 83.858s-80.416-35.745-80.416-83.858c0-50.184 35.738-87.292 80.416-87.292z" />
<glyph unicode="&#xe909;" d="M880.033 632.517c59.455 0 90.041-33.335 90.041-33.335l-21.307-32.989c0 0-27.837 25.773-66.67 25.773-51.554 0-81.794-38.495-81.794-83.858 0-46.403 31.271-87.292 82.141-87.292 42.268 0 70.79 30.925 70.79 30.925l23.371-31.965c0 0-33.674-39.526-95.886-39.526-74.571 0-126.125 55.335-126.125 127.157 0 70.806 53.61 125.109 125.44 125.109z" />
<glyph unicode="&#xe90a;" d="M45.623 281.655l34.619 64.496h13.265l9.901-64.496h-11.721l-2.269 16.534h-22.63l-8.633-16.534h-12.532zM88.418 307.72l-2.458 17.258c-0.457 3.631-0.733 9.996-0.733 9.996h-0.173c0 0-2.458-6.451-4.364-9.996l-9.177-17.258h16.904z" />
<glyph unicode="&#xe90b;" d="M113.034 294.731c0 0 4.632-4.632 12.351-4.632 3.545 0 7.538 1.638 7.538 4.994 0 5.908-19.44 5.813-19.44 19.354 0 9.082 9.177 14.62 18.353 14.62 10.531 0 16.077-5.27 16.077-5.27l-5.27-7.901c0 0-3.631 3.631-10.807 3.631-3.363 0-7.546-1.457-7.546-4.994 0-5.632 19.527-5.632 19.527-19.44 0-8.625-7.901-14.533-18.44-14.533-11.54 0-18.353 6.727-18.353 6.727l6.010 7.444z" />
<glyph unicode="&#xe90c;" d="M178.16 329.074c12.446 0 18.534-7.27 18.534-17.534 0-3.994-1.631-8.901-1.631-8.901h-31.886c-0.095-0.638-0.095-1.182-0.095-1.725 0-5.908 3.994-10.539 11.445-10.539 7.444 0 14.352 5.088 14.352 5.088l3.088-8.814c0 0-7.806-6.089-18.078-6.089-14.446 0-22.528 8.72-22.528 19.897 0 15.714 11.351 28.617 26.797 28.617zM185.155 310.54c0 0 0.181 0.992 0.181 1.993 0 4.813-2.993 7.633-7.365 7.633-5.9 0-10.713-3.907-12.981-9.626h20.165z" />
<glyph unicode="&#xe90d;" d="M204.146 294.731c0 0 4.632-4.632 12.351-4.632 3.537 0 7.538 1.638 7.538 4.994 0 5.908-19.44 5.813-19.44 19.354 0 9.082 9.169 14.62 18.345 14.62 10.539 0 16.077-5.27 16.077-5.27l-5.262-7.901c0 0-3.639 3.631-10.815 3.631-3.363 0-7.538-1.457-7.538-4.994 0-5.632 19.527-5.632 19.527-19.44 0-8.625-7.901-14.533-18.44-14.533-11.54 0-18.353 6.727-18.353 6.727l6.010 7.444z" />
<glyph unicode="&#xe90e;" d="M270.911 329.074c13.359 0 22.812-8.263 22.812-20.441 0-16.258-14.352-28.073-28.711-28.073-13.265 0-22.717 8.176-22.717 20.527 0 16.085 14.178 27.987 28.617 27.987zM265.192 290.375c8.263 0 16.801 7.27 16.801 17.534 0 6.814-4.632 11.351-11.169 11.351-8.271 0-16.904-7.444-16.904-17.621 0-6.908 4.726-11.264 11.272-11.264z" />
<glyph unicode="&#xe90f;" d="M307.153 327.987h11.083l-1.544-7.995c-0.362-1.725-0.906-3.363-0.906-3.363h0.095c3.096 6.365 9.444 11.989 16.534 11.989 1.457 0 2.733-0.181 2.733-0.181l-2.276-11.359c0 0-1.087 0.181-2.725 0.181-6.9 0-15.084-7.719-17.258-19.165l-3.174-16.439h-11.54l8.98 46.332z" />
<glyph unicode="&#xe910;" d="M361.661 329.074c12.446 0 18.534-7.27 18.534-17.534 0-3.994-1.631-8.901-1.631-8.901h-31.894c-0.087-0.638-0.087-1.182-0.087-1.725 0-5.908 3.994-10.539 11.445-10.539 7.444 0 14.344 5.088 14.344 5.088l3.096-8.814c0 0-7.814-6.089-18.078-6.089-14.446 0-22.528 8.72-22.528 19.897 0 15.714 11.351 28.617 26.797 28.617zM368.656 310.54c0 0 0.181 0.992 0.181 1.993 0 4.813-3.001 7.633-7.365 7.633-5.9 0-10.713-3.907-12.989-9.626h20.173z" />
<glyph unicode="&#xe911;" d="M387.639 294.731c0 0 4.632-4.632 12.351-4.632 3.545 0 7.538 1.638 7.538 4.994 0 5.908-19.44 5.813-19.44 19.354 0 9.082 9.177 14.62 18.353 14.62 10.539 0 16.077-5.27 16.077-5.27l-5.27-7.901c0 0-3.631 3.631-10.807 3.631-3.363 0-7.538-1.457-7.538-4.994 0-5.632 19.527-5.632 19.527-19.44 0-8.625-7.908-14.533-18.448-14.533-11.54 0-18.345 6.727-18.345 6.727l6.002 7.444z" />
<glyph unicode="&#xe912;" d="M462.037 345.789h8.901l-5.537-28.255h33.335l5.545 28.255h8.901l-12.54-64.134h-8.901l5.451 28.16h-33.343l-5.443-28.16h-8.909l12.54 64.134z" />
<glyph unicode="&#xe913;" d="M525.178 327.617h8.806l-8.995-45.962h-8.814l9.003 45.962zM528.542 345.789h9.074l-1.812-8.995h-8.995l1.733 8.995z" />
<glyph unicode="&#xe914;" d="M544.059 263.483h-8.806l12.446 64.134h8.176l-0.733-3.907c-0.362-1.82-1-3.631-1-3.631h0.181c3.182 4.813 8.814 8.625 15.99 8.625 10.996 0 17.25-7.357 17.25-18.889 0-17.353-12.351-29.255-24.978-29.255-6.081 0-11.453 2.631-13.714 7.995h-0.181c0 0-0.181-1.906-0.638-4.269l-3.994-20.803zM561.601 288.193c7.995 0 16.983 7.814 16.983 20.984 0 7.365-3.907 11.815-10.35 11.815-9.444 0-16.896-10.264-16.896-20.984 0-6.451 3.261-11.815 10.264-11.815z" />
<glyph unicode="&#xe915;" d="M622.371 328.704c12.808 0 21.811-8.176 21.811-20.070 0-15.99-14.178-28.073-28.349-28.073-12.902 0-21.89 8.271-21.89 20.259-0.008 15.809 13.989 27.884 28.428 27.884zM615.92 288.193c9.444 0 19.251 8.633 19.251 19.992 0 7.633-5.356 12.895-12.902 12.895-9.712 0-19.346-8.625-19.346-19.889 0.008-7.727 5.372-12.997 12.997-12.997z" />
<glyph unicode="&#xe916;" d="M654.706 299.362l4.001 20.622h-5.994l1.363 7.176h6.176l2.631 13.084h8.539l-2.631-13.084h11.083l-1.371-7.176h-11.075l-3.812-20.070c-0.268-1.363-0.37-2.725-0.37-3.631 0-6.262 4.183-7.176 7.546-7.176 1.536 0 2.631 0.181 2.631 0.181l-1.536-7.814c0 0-1.457-0.181-2.907-0.181-7.081 0-14.809 2.544-14.809 13.446 0 1.355 0.173 2.907 0.536 4.624z" />
<glyph unicode="&#xe917;" d="M709.033 328.704c11.902 0 17.542-7.081 17.542-16.983 0-3.726-1.457-8.357-1.457-8.357h-33.524c-0.173-0.914-0.268-1.82-0.268-2.725 0-6.814 4.443-12.446 13.076-12.446 7.908 0 14.627 5.364 14.627 5.364l2.536-6.995c0 0-7.633-5.994-17.534-5.994-13.446 0-21.717 8.176-21.717 19.621 0.008 15.258 11.28 28.514 26.719 28.514zM717.572 309.996c0 0 0.181 1 0.181 2.458 0 6.176-3.726 9.263-8.901 9.263-6.727 0-12.989-4.45-15.809-11.721h24.529z" />
<glyph unicode="&#xe918;" d="M760.627 328.704c12.083 0 17.353-6.624 17.353-6.624l-4.907-5.727c0 0-4.364 4.726-11.989 4.726-10.35 0-19.803-8.806-19.803-19.889 0-7.633 5.27-12.989 13.438-12.989 8.546 0 15.447 6.176 15.447 6.176l2.458-6.995c0 0-7.444-6.814-18.716-6.814-13.265 0-21.614 8.176-21.614 19.992 0 15.612 13.17 28.144 28.333 28.144z" />
<glyph unicode="&#xe919;" d="M810.142 310.359h2.269c0.37 1.82 0.37 2.907 0.37 3.726 0 4.269-2.095 7.176-8.271 7.176-7.081 0-13.714-4.364-13.714-4.364l-2.363 6.995c0 0 7.633 4.813 17.345 4.813 8.814 0 15.99-3.726 15.99-13.627 0-1.449-0.181-3.356-0.544-5.088l-5.537-28.341h-8.176l0.906 4.632c0.362 2.087 0.906 3.631 1 3.631h-0.181c0.095 0-5.537-9.358-15.982-9.358-7.27 0-13.722 4.183-13.722 11.626-0.008 14.911 18.164 18.18 30.61 18.18zM795.876 287.649c7.365 0 13.446 7.719 15.084 14.533l0.362 1.544h-2.276c-6.443 0-20.519-0.725-20.519-10.082-0.008-3.182 2.269-5.994 7.349-5.994z" />
<glyph unicode="&#xe91a;" d="M837.664 327.617h8.539l-1.631-7.995c-0.362-1.914-0.906-3.726-0.906-3.726h0.087c3.096 6.546 9.358 12.264 16.628 12.264 1.174 0 2.174-0.095 2.725-0.181l-1.725-8.72c-0.638 0.181-1.371 0.276-2.458 0.276-8.452 0-16.085-10.445-18.172-21.165l-3.182-16.715h-8.806l8.901 45.962z" />
<glyph unicode="&#xe91b;" d="M871.637 327.617h8.806l-8.995-45.962h-8.814l9.003 45.962zM875 345.789h9.082l-1.812-8.995h-9.003l1.733 8.995z" />
<glyph unicode="&#xe91c;" d="M914.424 328.704c12.808 0 21.803-8.176 21.803-20.070 0-15.99-14.171-28.073-28.341-28.073-12.902 0-21.898 8.271-21.898 20.259 0 15.809 13.989 27.884 28.436 27.884zM907.981 288.193c9.444 0 19.251 8.633 19.251 19.992 0 7.633-5.364 12.895-12.902 12.895-9.712 0-19.346-8.625-19.346-19.889 0-7.727 5.364-12.997 12.997-12.997z" />
<glyph unicode="&#xe91d;" d="M943.947 293.006c0 0 4.545-4.994 12.713-4.994 4.269 0 9.271 2.269 9.271 6.814 0 6.995-20.173 6.365-20.173 19.716 0 8.995 8.909 14.171 17.621 14.171 10.082 0 14.99-5.088 14.99-5.088l-4.364-6.089c0 0-3.45 3.726-10.72 3.726-3.994 0-9.177-1.906-9.177-6.632 0-6.995 20.259-6.357 20.259-19.803 0-8.444-7.901-14.265-17.715-14.265-11.351 0-17.534 6.632-17.534 6.632l4.829 5.813z" />
<glyph unicode="&#xe91e;" glyph-name="construccion" d="M290.131 379.734h34.133v-34.133h-34.133zM358.397 379.734h34.133v-34.133h-34.133zM426.664 379.734h34.133v-34.133h-34.133zM290.131 311.468h34.133v-34.133h-34.133zM358.397 311.468h34.133v-34.133h-34.133zM426.664 311.468h34.133v-34.133h-34.133zM494.93 311.468h34.133v-34.133h-34.133zM563.196 311.468h34.133v-34.133h-34.133zM290.131 243.201h34.133v-34.133h-34.133zM358.397 243.201h34.133v-34.133h-34.133zM426.664 243.201h34.133v-34.133h-34.133zM494.93 243.201h34.133v-34.133h-34.133zM563.196 243.201h34.133v-34.133h-34.133zM290.131 174.935h34.133v-34.133h-34.133zM358.397 174.935h34.133v-34.133h-34.133zM426.664 174.935h34.133v-34.133h-34.133zM494.93 174.935h34.133v-34.133h-34.133zM563.196 174.935h34.133v-34.133h-34.133zM290.131 106.669h34.133v-34.133h-34.133zM358.397 106.669h34.133v-34.133h-34.133zM426.664 106.669h34.133v-34.133h-34.133zM494.93 106.669h34.133v-34.133h-34.133zM563.196 106.669h34.133v-34.133h-34.133zM290.131 38.403h34.133v-34.133h-34.133zM358.397 38.403h34.133v-34.133h-34.133zM426.664 38.403h34.133v-34.133h-34.133zM494.93 38.403h34.133v-34.133h-34.133zM563.196 38.403h34.133v-34.133h-34.133zM1006.926 908.797h-119.466v34.133c0 9.425-7.642 17.067-17.067 17.067h-170.665c-9.425 0-17.067-7.642-17.067-17.067v-34.133h-665.595c-9.425 0-17.067-7.642-17.067-17.067v-68.266c0-9.433 7.642-17.067 17.067-17.067h51.2v-324.264c0-9.433 7.642-17.067 17.067-17.067s17.067-7.642 17.067-17.067c0-9.433-7.642-17.067-17.067-17.067s-17.067 7.633-17.067 17.067h-34.133c0.050-12.492 4.692-24.533 13.058-33.816l-43.775-58.35 0.217-0.167c-2.283-2.867-3.558-6.408-3.633-10.067v-68.266c0-4.533 1.8-8.867 5-12.067l34.133-34.133c3.2-3.2 7.542-5 12.067-5h68.266c4.525 0 8.867 1.8 12.067 5l34.133 34.133c3.2 3.2 5 7.533 5 12.067v68.266c-0.075 3.658-1.35 7.2-3.633 10.067l0.217 0.167-43.775 58.35c11.4 12.667 15.7 30.2 11.458 46.7-4.233 16.5-16.45 29.783-32.533 35.391v310.123h580.262v-17.067c0-9.433 7.642-17.067 17.067-17.067h34.133v-802.128h-68.266v682.662h-34.133v-68.266h-102.399v34.133h-34.133v-34.133h-102.399v17.067h-34.133v-17.067h-102.399v51.2h221.865v34.133h-221.865v68.266h-34.133v-767.994h-27.066l-80.333 80.324c-6.667 6.667-17.467 6.667-24.133 0l-80.333-80.324h-10v-34.133h1023.993v34.133h-13.308c12.008 13.108 16.275 31.558 11.242 48.616-5.025 17.050-18.617 30.233-35.825 34.733 8.675 21.392 1.975 45.933-16.375 59.941-18.342 14.008-43.791 14.008-62.133 0-18.35-14.008-25.050-38.55-16.375-59.941-17.208-4.5-30.8-17.683-35.825-34.733-5.033-17.058-0.767-35.508 11.242-48.616h-30.375v802.128h34.133c9.425 0 17.067 7.633 17.067 17.067v17.067h119.466c9.425 0 17.067 7.633 17.067 17.067v68.266c0 9.425-7.642 17.067-17.067 17.067zM93.866 396.8l25.6-34.133h-68.266l25.6 34.133zM136.532 284.393l-24.133-24.125h-54.133l-24.133 24.125v44.141h102.399zM933.543 874.664l-46.083-30.725v30.725zM716.795 925.863h68.266v-68.266h-68.266zM255.998 871.247l46.083-30.716h-92.166zM153.599 843.939l-46.083 30.725h92.166zM312.314 874.664h92.166l-46.083-30.725zM460.797 871.247l46.083-30.716h-92.166zM517.113 874.664h92.166l-46.083-30.725zM34.133 874.664h11.95l51.2-34.133h-63.15zM619.512 840.531l51.2 34.133h11.95v-34.133zM802.128 26.453l-30.716 46.083 30.716 46.075zM802.128 436.050l-30.716 46.083 30.716 46.075zM767.994 425.808l30.716-46.075-30.716-46.083zM767.994 538.449v92.158l30.716-46.075zM767.994 221.010l30.716-46.075-30.716-46.083zM802.128 231.352l-30.716 45.983 30.716 46.075zM771.411 686.932l30.716 46.075v-92.158zM767.994 743.248v29.016h19.317zM631.462 550.399v-170.665h-102.399v170.665zM494.93 550.399v-146.774l-39.25 38.791c-3.183 3.142-7.475 4.917-11.95 4.933h-51.2v103.049zM358.397 550.399v-28.45h-102.399v28.45zM102.399 14.27l44.133-44.133h-88.266zM255.998-29.863v517.68h102.399v-57.6c0-9.433 7.642-17.067 17.067-17.067h61.25l63.333-62.625c3.183-3.142 7.475-4.917 11.95-4.925h119.466v-375.464zM767.994 16.211l30.716-46.075h-30.716zM972.793-12.797c-9.425 0-17.067 7.633-17.067 17.067 0 9.425 7.642 17.067 17.067 17.067s17.067-7.642 17.067-17.067c0-9.433-7.642-17.067-17.067-17.067zM938.66 89.603c9.425 0 17.067-7.642 17.067-17.067 0-9.433-7.642-17.067-17.067-17.067s-17.067 7.633-17.067 17.067c0 9.425 7.642 17.067 17.067 17.067zM904.527 21.336c9.425 0 17.067-7.642 17.067-17.067 0-9.433-7.642-17.067-17.067-17.067s-17.067 7.633-17.067 17.067c0 9.425 7.642 17.067 17.067 17.067zM853.327 806.397h-136.532v17.067h85.333c9.425 0 17.067 7.633 17.067 17.067v85.333h34.133zM943.777 840.531l46.083 30.716v-30.716z" />
<glyph unicode="&#xe91f;" glyph-name="liquidez" horiz-adv-x="1022" d="M471.586 265.468c7.805 7.82 7.805 20.477 0 28.297-7.813 7.797-20.469 7.797-28.289 0-7.797-7.82-7.797-20.477 0-28.297 7.82-7.797 20.477-7.797 28.289 0zM376.899 740.062c0-121.273 98.664-219.945 219.938-219.945s219.938 98.672 219.938 219.945-98.664 219.938-219.938 219.938-219.938-98.664-219.938-219.938zM776.789 740.062c0-99.227-80.727-179.953-179.953-179.953s-179.953 80.727-179.953 179.953c0 99.219 80.727 179.945 179.953 179.945s179.953-80.727 179.953-179.945zM231.305-58.086c7.75-7.813 20.367-7.898 28.219-0.164l96.938 95.5c16.469 16.469 21.477 40.852 14.234 62.047l20.852 20.109c11.227 10.844 26.008 16.82 41.633 16.82h265.805c47.156 0 91.727 18.109 125.516 50.992 1.391 1.352-10.555-12.719 181.336 216.625 28.461 33.672 24.203 84.234-9.5 112.727-33.492 28.227-83.664 24.172-112.203-8.922l-117.984-121.266c-14.898 18.336-37.617 29.766-62.164 29.766h-222.961c-31.727 13.273-65.391 19.992-100.125 19.992-96.281 0-180.352-44.469-225.469-127.844-19.008 3.602-39.055-2.148-53.477-16.57l-95.117-95.398c-7.766-7.789-7.781-20.391-0.031-28.203zM380.891 396.156c30.625 0 60.234-6.164 88.023-18.32 2.531-1.109 5.258-1.68 8.016-1.68h227.055c21.68 0 39.992-17.68 39.992-39.984 0-22.055-17.938-39.992-39.992-39.992h-163.133c-11.039 0-19.992-8.953-19.992-19.992 0-11.047 8.953-19.992 19.992-19.992h163.133c44.102 0 79.977 35.875 79.977 79.977 0 3.516-0.25 7-0.703 10.453 114.133 117.32 130.227 133.805 130.914 134.625 14.25 16.82 39.547 18.953 56.375 4.766 16.844-14.242 18.977-39.523 4.688-56.438l-179.336-214.391c-26.188-25.141-60.57-38.977-96.914-38.977h-265.805c-26.047 0-50.703-9.961-69.406-28.031l-16.992-16.398-156.641 156.633c36.609 68.68 105.305 107.742 190.75 107.742zM130.25 263.468c6.594 6.594 16.719 7.781 24.758 2.813 3.461-2.109-6.477 6.938 173.18-172.469 7.992-7.992 7.563-20.727 0.109-28.18l-82.641-81.414-196.461 197.961zM572.844 860.023v-23.43c-23.273-8.25-39.992-30.477-39.992-56.547 0-33.070 26.906-59.984 59.984-59.984 11.023 0 19.992-8.969 19.992-19.992s-8.969-19.992-19.992-19.992c-8.539 0-17.766 5.367-25.961 15.125-7.109 8.453-19.719 9.539-28.172 2.438-8.453-7.109-9.547-19.719-2.438-28.172 10.688-12.711 23.258-21.57 36.578-26.039v-23.336c0-11.047 8.953-19.992 19.992-19.992s19.992 8.945 19.992 19.992v23.43c23.273 8.258 39.992 30.484 39.992 56.547 0 33.078-26.906 59.984-59.984 59.984-11.023 0-19.992 8.969-19.992 19.992s8.969 20 19.992 20c7.086 0 14.563-3.617 21.625-10.453 7.938-7.68 20.594-7.469 28.273 0.461 7.68 7.938 7.469 20.594-0.461 28.273-10.148 9.82-20.305 15.375-29.445 18.406v23.289c0 11.047-8.953 20-19.992 20s-19.992-8.953-19.992-20z" />
<glyph unicode="&#xe920;" glyph-name="hipoteca" d="M502.323 844.387l-34.452 34.452c-9.734 9.726-22.677 15.097-36.452 15.097h-4c-13.774 0-26.718-5.371-36.452-15.097l-34.452-34.452h-148.645l-141.806-141.806v-39.871h33.032v-231.226h660.645v231.226h33.032v39.871l-141.806 141.806zM414.323 855.484c3.5 3.484 8.145 5.419 13.097 5.419h4c4.952 0 9.597-1.935 13.097-5.419l144.645-144.645c3.484-3.5 5.419-8.145 5.419-13.097 0-10.21-8.306-18.516-18.516-18.516-4.952 0-9.597 1.935-13.097 5.419l-133.548 133.548-133.548-133.548c-3.5-3.484-8.145-5.419-13.097-5.419-10.21 0-18.516 8.306-18.516 18.516 0 4.952 1.935 9.597 5.419 13.097zM462.452 464.516h-66.065v132.129h66.065zM363.355 629.677v-165.161h-33.032v207.871l99.097 99.097 99.097-99.097v-207.871h-33.032v165.161zM221.548 811.355h101.935l-77.161-77.161c-9.726-9.734-15.097-22.677-15.097-36.452 0-0.677 0.185-1.323 0.202-2h-125.492zM132.129 662.71h113.056c9.411-10.089 22.726-16.516 37.589-16.516 5.016 0 9.839 0.944 14.516 2.315v-183.992h-165.161zM726.71 464.516h-165.161v183.992c4.677-1.371 9.5-2.315 14.516-2.315 14.863 0 28.177 6.427 37.589 16.516h113.056zM627.411 695.742c0.016 0.677 0.202 1.323 0.202 2 0 13.774-5.371 26.718-15.097 36.452l-77.161 77.161h101.935l115.613-115.613zM165.161 514.065h99.097v99.097h-99.097zM198.194 580.129h33.032v-33.032h-33.032zM594.581 514.065h99.097v99.097h-99.097zM627.613 580.129h33.032v-33.032h-33.032zM858.839 167.226v792.774h-858.839v-924.903c0-54.653 44.444-99.097 99.097-99.097h809.29c63.75 0 115.613 51.879 115.613 115.613v115.613zM165.161 35.097c0-36.435-29.629-66.065-66.065-66.065s-66.065 29.629-66.065 66.065v891.871h792.774v-759.742h-660.645zM990.968 51.613c0-45.532-37.048-82.581-82.581-82.581h-735.5c15.726 17.54 25.306 40.71 25.306 66.065v99.097h792.774zM99.097 398.452h330.323v-33.032h-330.323zM99.097 332.387h330.323v-33.032h-330.323zM396.387 266.323h33.032v-33.032h-33.032zM330.323 266.323h33.032v-33.032h-33.032zM99.097 266.323h198.194v-33.032h-198.194zM611.097 273.161l-33.032-33.032-33.032 33.032-44.71-44.71 23.355-23.355 21.355 21.355 33.032-33.032 33.032 33.032 26.194-26.194h89.419v33.032h-75.742zM759.742 233.29h33.032v-33.032h-33.032z" />
<glyph unicode="&#xe921;" glyph-name="terrain" d="M1017.745 205.901l-391.294 521.725c-5.909 7.877-15.175 12.51-25.020 12.51s-19.115-4.633-25.020-12.51l-162.231-216.312-64.414 85.886c-5.905 7.877-15.175 12.51-25.020 12.51s-19.111-4.633-25.020-12.51l-293.47-391.299c-7.106-9.474-8.248-22.16-2.952-32.756 5.296-10.592 16.125-17.285 27.973-17.285h961.45c11.847 0 22.677 6.693 27.973 17.285 5.3 10.6 4.158 23.281-2.952 32.756zM93.826 218.411l230.919 307.898 64.41-85.886c5.905-7.877 15.175-12.51 25.020-12.51s19.111 4.633 25.020 12.51l162.231 216.312 328.748-438.324h-836.349z" />
<glyph unicode="&#xe922;" glyph-name="terrenoconstruccion" d="M1006.942 345.601c-0.002 0-0.006 0-0.009 0-16.857 0.363-33.589-2.963-49.024-9.749-23.257-9.756-49.459-9.756-72.716 0-31.381 13-66.643 13-98.024 0-23.217-9.756-49.382-9.756-72.599 0-12.985 5.713-26.922 8.949-41.096 9.54l-9.003 23.409c-2.543 6.586-8.875 10.931-15.934 10.933h-17.067v68.266c9.425 0 17.067 7.639 17.067 17.064 0 3.371-0.998 6.667-2.867 9.47l-68.266 102.399c-5.847 7.842-16.945 9.459-24.787 3.612-1.372-1.024-2.59-2.24-3.612-3.612l-68.266-102.399c-5.229-7.842-3.11-18.436 4.73-23.665 2.805-1.871 6.099-2.867 9.47-2.867v-68.266h-24.674l-80.315 128.515c-3.123 4.986-8.591 8.015-14.475 8.017h-17.067v34.133h22.259c17.608-0.013 34.438 7.255 46.5 20.083 11.68 12.36 17.638 29.054 16.424 46.016-0.233 3.433-24.499 343.498-102.25 343.498-77.749 0-102.015-340.063-102.25-343.498-1.214-16.962 4.744-33.655 16.424-46.016 12.062-12.828 28.891-20.096 46.5-20.083h22.259v-34.133h-204.798v34.133h22.259c17.608-0.013 34.438 7.255 46.5 20.083 11.68 12.36 17.638 29.054 16.424 46.016-0.239 3.433-24.505 343.496-102.254 343.496s-102.015-340.063-102.25-343.498c-1.214-16.962 4.744-33.655 16.424-46.016 12.062-12.828 28.891-20.096 46.5-20.083h22.259v-34.133h-68.275c-9.425-0.002-17.064-7.642-17.067-17.067l0.009-546.129c-0.002-9.423 7.635-17.064 17.058-17.067 0.002 0 0.006 0 0.009 0h989.858c9.423-0.002 17.064 7.635 17.067 17.058 0 0.002 0 0.006 0 0.009v375.464c0.002 9.423-7.635 17.064-17.058 17.067zM563.204 536.699l36.375-54.566h-72.75l36.375 54.566zM597.337 448v-68.266h-68.266v68.266h68.266zM302.013 584.532c-8.162-0.075-15.981 3.283-21.551 9.25-5.19 5.468-7.848 12.862-7.326 20.384 10.351 150.582 46.259 296.763 68.2 311.232 21.941-14.466 57.849-160.649 68.2-311.232 0.525-7.52-2.133-14.916-7.326-20.384-5.57-5.967-13.387-9.325-21.551-9.25h-78.647zM63.082 584.532c-8.162-0.075-15.981 3.283-21.551 9.25-5.19 5.468-7.848 12.862-7.326 20.384 10.353 150.582 46.261 296.763 68.202 311.229 21.941-14.466 57.849-160.649 68.2-311.232 0.525-7.52-2.133-14.916-7.326-20.384-5.568-5.967-13.387-9.325-21.551-9.25h-78.649zM989.867-29.863h-955.725l-0.009 511.996h331.88l80.315-128.515c3.123-4.986 8.591-8.015 14.475-8.017h176.007l81.124-210.932c2.543-6.586 8.872-10.931 15.934-10.933h255.998v-153.599zM989.867 157.869h-244.273l-58.165 151.237c4.932-1.303 9.762-2.959 14.457-4.954 31.362-13 66.604-13 97.966 0 23.242 9.756 49.431 9.756 72.674 0 31.39-13 66.66-13 98.049 0 6.189 2.709 12.657 4.723 19.292 6.001v-152.285zM887.468 891.73c-37.685-0.041-68.226-30.581-68.266-68.266 0-37.702 30.564-68.266 68.266-68.266s68.266 30.564 68.266 68.266-30.564 68.266-68.266 68.266zM887.468 789.33c-18.852 0-34.133 15.281-34.133 34.133 0.021 18.841 15.292 34.112 34.133 34.133 18.852 0 34.133-15.281 34.133-34.133s-15.283-34.133-34.133-34.133zM870.401 959.996h34.133v-34.133h-34.133v34.133zM989.867 840.53h34.133v-34.133h-34.133v34.133zM870.401 721.064h34.133v-34.133h-34.133v34.133zM750.936 840.53h34.133v-34.133h-34.133v34.133zM947.83 907.942l24.129 24.146 24.146-24.129-24.129-24.146-24.146 24.129zM947.837 739.097l24.146 24.129 24.129-24.146-24.146-24.129-24.129 24.146zM778.887 738.983l24.129 24.146 24.146-24.129-24.129-24.146-24.146 24.129zM778.894 907.969l24.146 24.129 24.129-24.146-24.146-24.129-24.129 24.146z" />
<glyph unicode="&#xe923;" glyph-name="casa" d="M1013.11 543.872l-485.392 355.394c-9.36 6.852-22.076 6.852-31.432 0l-485.396-355.394c-11.856-8.682-14.432-25.33-5.75-37.186s25.332-14.428 37.186-5.75l469.674 343.888 469.674-343.886c4.736-3.47 10.24-5.14 15.696-5.14 8.192 0 16.276 3.77 21.488 10.89 8.684 11.854 6.108 28.502-5.748 37.184zM884.492 494.914c-14.692 0-26.606-11.912-26.606-26.606v-423.498h-212.844v231.172c0 73.36-59.684 133.040-133.040 133.040s-133.040-59.684-133.040-133.040v-231.174h-212.846v423.498c0 14.694-11.914 26.606-26.606 26.606s-26.606-11.912-26.606-26.606v-450.106c0-14.694 11.914-26.606 26.606-26.606h266.058c13.992 0 25.442 10.81 26.502 24.534 0.064 0.622 0.104 1.302 0.104 2.072v257.78c0 44.018 35.81 79.828 79.828 79.828s79.828-35.812 79.828-79.828v-257.78c0-0.766 0.040-1.434 0.104-2.048 1.048-13.734 12.502-24.558 26.502-24.558h266.058c14.694 0 26.606 11.912 26.606 26.606v450.106c-0.002 14.696-11.914 26.608-26.608 26.608z" />
</font>
</defs>
</svg>
